<svg width="43" height="42" viewBox="0 0 43 42" fill="none" xmlns="http://www.w3.org/2000/svg"><path d="M34.08 17.38c-1.617-5.787-6.987-9.914-13.073-9.914-7.464 0-13.618 6.072-13.618 13.536 0 7.464 6.154 13.619 13.618 13.619 6.085 0 11.455-4.21 13.074-9.997a3.693 3.693 0 0 0 3.005-3.622c0-1.8-1.297-3.3-3.005-3.622zm-2.44 6.85c-1.408 4.595-5.746 7.93-10.633 7.93-6.107 0-11.157-5.05-11.157-11.158 0-6.107 5.05-11.075 11.157-11.075 4.887 0 9.225 3.252 10.633 7.847-1.147.627-1.937 1.83-1.937 3.228 0 1.398.79 2.601 1.937 3.228z" fill="#FF5D2E"/><path d="M21.007 0C8.688 0 .051 10.196 0 21.002a20.791 20.791 0 0 0 3.842 12.122 3.658 3.658 0 0 0 .55 4.492 3.659 3.659 0 0 0 4.49.553C12.498 40.724 16.786 42 20.988 42 32.42 42 42.01 32.704 42.01 21.002 42.01 9.442 32.571 0 21.007 0zm-.262 39.54a18.385 18.385 0 0 1-10.284-3.27 3.65 3.65 0 0 0-.848-3.874c-1.005-1.006-2.545-1.259-3.85-.815A18.369 18.369 0 0 1 2.468 21c.049-9.526 7.65-18.54 18.54-18.54 10.2 0 18.54 8.338 18.54 18.542 0 10.989-9.178 18.628-18.803 18.538z" fill="#FF5D2E"/><path d="M21.007 14.849A6.16 6.16 0 0 0 14.854 21a6.16 6.16 0 0 0 6.153 6.153 6.16 6.16 0 0 0 6.153-6.152 6.16 6.16 0 0 0-6.153-6.153z" fill="#FF5D2E"/></svg>