<svg width="16" height="16" viewBox="0 0 16 16" fill="none" xmlns="http://www.w3.org/2000/svg">
  <path d="M3.87008 8.74363L13.5858 8.74363C13.8719 8.74314 14.1006 8.51484 14.1006 8.22842C14.1006 7.94396 13.874 7.7077 13.5858 7.7077L3.87038 7.7077L6.71832 4.86507L6.71959 4.86379C6.91651 4.65989 6.91838 4.33048 6.71832 4.13091C6.51441 3.92711 6.18372 3.92504 5.98386 4.1316L2.2548 7.86075C2.04923 8.06003 2.04913 8.39081 2.2548 8.58989L5.90089 12.3512C6.10137 12.558 6.43207 12.5615 6.6369 12.359C6.83826 12.1599 6.84238 11.836 6.64615 11.6319L3.87008 8.74363Z" fill="white" stroke="white" stroke-width="0.2"/>
</svg>
