<svg width="36" height="36" viewBox="0 0 36 36" fill="none" xmlns="http://www.w3.org/2000/svg">
<path d="M2.91892 10.7027H35.027V4.86486L17.5135 0L0 4.86486V10.7027H2.91892ZM17.5135 3.89189C18.5882 3.89189 19.4595 4.7632 19.4595 5.83784C19.4595 6.91248 18.5882 7.78378 17.5135 7.78378C16.4389 7.78378 15.5676 6.91248 15.5676 5.83784C15.5676 4.7632 16.4389 3.89189 17.5135 3.89189Z" fill="#FF9E82"/>
<path d="M2.91895 10.7026H6.81084V28.2162H2.91895V10.7026Z" fill="#FF9E82"/>
<path d="M28.2163 10.7026H32.1082V28.2162H28.2163V10.7026Z" fill="#FF9E82"/>
<path d="M6.81091 28.2163H1.94604V32.1082H33.0812V28.2163H6.81091Z" fill="#FF9E82"/>
<path d="M0 32.1079V35.9998H35.027V32.1079H0Z" fill="#FF9E82"/>
</svg>
