<svg xmlns="http://www.w3.org/2000/svg" width="20" height="24" fill="none">
  <path fill="#3C3C3B" stroke="#3C3C3B" stroke-width=".2" d="M12.949 1.0146l2.166 2.7237.0001.0001v.0001l.0783-.0622-2.2444-2.6617zm0 0l-2.7237 2.166h-.0001a.4636.4636 0 0 1-.6519-.0741m3.3757-2.092l-3.3757 2.092m0 0a.4632.4632 0 0 1 .0742-.651L12.7341.0002l.0004-.0003c.1991-.1568.4912-.1283.6515.0746m-3.8127 3.032L13.386.0745m0 0l.0001.0002 2.455 3.0862a.4632.4632 0 0 1-.0741.651L13.386.0745z"/>
  <path fill="#3C3C3B" stroke="#3C3C3B" stroke-width=".2" d="M.8076 12.1156c0 .256.2077.4637.4636.4637 6.736 0 12.2157-5.4797 12.2157-12.2157a.4638.4638 0 0 0-.9273 0c0 6.2248-5.0636 11.2884-11.2884 11.2884a.4638.4638 0 0 0-.4636.4636zM.8076 23.636c0 .256.2077.4637.4636.4637a.4638.4638 0 0 0 .4637-.4637v-5.5941a.4638.4638 0 0 0-.4637-.4637.4638.4638 0 0 0-.4636.4637v5.5941zM6.6273 23.6362c0 .2559.2077.4636.4636.4636a.4638.4638 0 0 0 .4637-.4636v-9.1236a.4638.4638 0 0 0-.4637-.4637.4638.4638 0 0 0-.4636.4637v9.1236zM12.4461 23.6361c0 .2559.2077.4636.4637.4636a.4638.4638 0 0 0 .4636-.4636V11.9764a.4638.4638 0 0 0-.4636-.4636.4638.4638 0 0 0-.4637.4636v11.6597zM18.2651 23.6363c0 .2559.2077.4636.4636.4636a.4638.4638 0 0 0 .4637-.4636V8.245a.4638.4638 0 0 0-.9273 0v15.3913z"/>
</svg>
