<svg width="175" height="175" viewBox="0 0 175 175" fill="none" xmlns="http://www.w3.org/2000/svg">
<circle cx="87.5" cy="87.5" r="87.5" fill="#2DE8A5" fill-opacity="0.3"/>
<path d="M53.7846 91.6154C53.2615 91.0923 53 90.3077 53 89.7846C53 89.2616 53.2615 88.477 53.7846 87.9539L57.4462 84.2923C58.4923 83.2462 60.0615 83.2462 61.1077 84.2923L61.3692 84.5539L75.7538 99.9846C76.2769 100.508 77.0615 100.508 77.5846 99.9846L112.631 63.6308H112.892C113.938 62.5847 115.508 62.5847 116.554 63.6308L120.215 67.2923C121.262 68.3385 121.262 69.9077 120.215 70.9539L78.3692 114.369C77.8462 114.892 77.3231 115.154 76.5385 115.154C75.7538 115.154 75.2308 114.892 74.7077 114.369L54.3077 92.4L53.7846 91.6154Z" fill="#2DE8A5"/>
</svg>
