<svg width="14" height="8" viewBox="0 0 14 8" fill="none" xmlns="http://www.w3.org/2000/svg">
<path d="M6.62929 6.98966L6.62922 6.9896L1.05343 1.40346L1.05336 1.40339M6.62929 6.98966L1.72414 0.732746C1.55862 0.567229 1.28966 0.567229 1.12414 0.732746C0.958621 0.898263 0.958621 1.16723 1.12414 1.33275L1.05336 1.40339M6.62929 6.98966C6.83386 7.19423 7.16614 7.19423 7.37071 6.98966L7.37078 6.9896L12.9466 1.40346L6.62929 6.98966ZM1.05336 1.40339C0.848858 1.19882 0.848879 0.866583 1.05343 0.662035C1.258 0.457466 1.59028 0.457466 1.79485 0.662035L7 5.86719M1.05336 1.40339L7 5.86719M7 5.86719L12.2052 0.662035C12.4097 0.457466 12.742 0.457466 12.9466 0.662035C13.0484 0.763891 13.1 0.892922 13.1 1.03275C13.1 1.17254 13.0485 1.30155 12.9466 1.40339L7 5.86719Z" fill="#3C3C3B" stroke="#3C3C3B" stroke-width="0.2"/>
</svg>
