<svg xmlns="http://www.w3.org/2000/svg" width="16" height="15" fill="none">
  <path fill="#595959 " stroke="#595959 " stroke-width=".4" d="M8 .3C4.0297.3.8 3.5297.8 7.5c0 3.9703 3.2297 7.2 7.2 7.2 3.9703 0 7.2-3.2297 7.2-7.2C15.2 3.5297 11.9703.3 8 .3zm0 13.5333c-3.492 0-6.3333-2.8413-6.3333-6.3333C1.6667 4.008 4.508 1.1667 8 1.1667c3.492 0 6.3333 2.8413 6.3333 6.3333 0 3.492-2.8413 6.3333-6.3333 6.3333z"/>
  <path fill="#595959 " stroke="#595959 " stroke-width=".4" d="M7.9999 1.7004a.4333.4333 0 0 0-.4334.4333v5.1667h-3.3a.4333.4333 0 1 0 0 .8667H8a.4333.4333 0 0 0 .4333-.4334v-5.6a.4333.4333 0 0 0-.4333-.4333z"/>
</svg>
