<svg fill="none" height="24" viewBox="0 0 24 24" width="24" xmlns="http://www.w3.org/2000/svg"><path d="m10.8533 11.9199-10.622988 10.623c-.2951246.2951-.2951246.7732 0 1.0683.147375.1478.340875.2213.534.2213.1935 0 .386628-.0735.533998-.2213l10.70289-10.7028 10.7029 10.7028c.1477.1478.3408.2213.534.2213.1931 0 .3866-.0735.534-.2213.2951-.2951.2951-.7732 0-1.0683l-10.6227-10.623 10.6298-10.63054c.2951-.295124.2951-.773249 0-1.068374-.2951-.2947498-.7733-.2947498-1.068 0l-10.7096 10.710414-10.71079-10.710039c-.295123-.2947498-.772873-.2947498-1.067998 0-.2951246.295125-.2951246.77325 0 1.068379z" fill="#1d1d1b"/></svg>