<svg width="36" height="36" viewBox="0 0 36 36" fill="none" xmlns="http://www.w3.org/2000/svg">
  <path d="M31.176 19.782L31.158 19.818C31.23 19.224 31.302 18.612 31.302 18C31.302 17.388 31.248 16.812 31.176 16.218L31.194 16.254L35.586 12.798L31.212 5.202L26.046 7.29L26.064 7.308C25.128 6.588 24.102 5.976 22.986 5.508H23.004L22.176 0H13.41L12.618 5.526H12.636C11.52 5.994 10.494 6.606 9.558 7.326L9.576 7.308L4.392 5.202L0 12.798L4.392 16.254L4.41 16.218C4.338 16.812 4.284 17.388 4.284 18C4.284 18.612 4.338 19.224 4.428 19.818L4.41 19.782L0.63 22.752L0.0360004 23.22L4.41 30.78L9.594 28.71L9.558 28.638C10.512 29.376 11.538 29.988 12.672 30.456H12.618L13.428 36H22.158C22.158 36 22.212 35.676 22.266 35.244L22.95 30.474H22.932C24.048 30.006 25.092 29.394 26.046 28.656L26.01 28.728L31.194 30.798L35.568 23.238C35.568 23.238 35.316 23.022 34.974 22.77L31.176 19.782ZM17.784 24.3C14.31 24.3 11.484 21.474 11.484 18C11.484 14.526 14.31 11.7 17.784 11.7C21.258 11.7 24.084 14.526 24.084 18C24.084 21.474 21.258 24.3 17.784 24.3Z" fill="#2DE0E8"/>
</svg>
