<svg width="24" height="24" viewBox="0 0 24 24" fill="none" xmlns="http://www.w3.org/2000/svg">
<path d="M9.65625 22.375H9.90625V22.125V18.375V18.125H9.65625H1.875H1.625V18.375V22.125V22.375H1.875H9.65625ZM0.9375 16.75H10.5938C10.9735 16.75 11.2812 17.0578 11.2812 17.4375V23.0625C11.2812 23.4422 10.9735 23.75 10.5938 23.75H0.9375C0.55779 23.75 0.25 23.4422 0.25 23.0625V17.4375C0.25 17.0578 0.55779 16.75 0.9375 16.75Z" fill="#FC5000" stroke="#F5F5F5" stroke-width="0.5"/>
<path d="M9.65625 13.9375H9.90625V13.6875V1.875V1.625H9.65625H1.875H1.625V1.875V13.6875V13.9375H1.875H9.65625ZM0.9375 0.25H10.5938C10.9735 0.25 11.2812 0.55779 11.2812 0.9375V14.625C11.2812 15.0047 10.9735 15.3125 10.5938 15.3125H0.9375C0.55779 15.3125 0.25 15.0047 0.25 14.625V0.9375C0.25 0.55779 0.55779 0.25 0.9375 0.25Z" fill="#FC5000" stroke="#F5F5F5" stroke-width="0.5"/>
<path d="M22.125 5.875H22.375V5.625V1.875V1.625H22.125H14.3438H14.0938V1.875V5.625V5.875H14.3438H22.125ZM13.4062 0.25H23.0625C23.4422 0.25 23.75 0.55779 23.75 0.9375V6.5625C23.75 6.94221 23.4422 7.25 23.0625 7.25H13.4062C13.0265 7.25 12.7188 6.94221 12.7188 6.5625V0.9375C12.7188 0.55779 13.0265 0.25 13.4062 0.25Z" fill="#FC5000" stroke="#F5F5F5" stroke-width="0.5"/>
<path d="M22.125 22.375H22.375V22.125V10.3125V10.0625H22.125H14.3438H14.0938V10.3125V22.125V22.375H14.3438H22.125ZM13.4062 8.6875H23.0625C23.4422 8.6875 23.75 8.99529 23.75 9.375V23.0625C23.75 23.4422 23.4422 23.75 23.0625 23.75H13.4062C13.0265 23.75 12.7188 23.4422 12.7188 23.0625V9.375C12.7188 8.99529 13.0265 8.6875 13.4062 8.6875Z" fill="#FC5000" stroke="#F5F5F5" stroke-width="0.5"/>
</svg>
