<svg width="9" height="16" viewBox="0 0 9 16" fill="none" xmlns="http://www.w3.org/2000/svg">
<path d="M8.44378 0.00332907L6.33925 0C3.97489 0 2.44693 1.54552 2.44693 3.93762V5.75313H0.330917C0.148069 5.75313 0 5.89927 0 6.07954V8.71001C0 8.89028 0.148237 9.03625 0.330917 9.03625H2.44693V15.6738C2.44693 15.854 2.595 16 2.77784 16H5.53864C5.72149 16 5.86955 15.8539 5.86955 15.6738V9.03625H8.34366C8.52651 9.03625 8.67458 8.89028 8.67458 8.71001L8.67559 6.07954C8.67559 5.99299 8.64065 5.91009 8.57868 5.84884C8.51672 5.78758 8.4323 5.75313 8.34451 5.75313H5.86955V4.2141C5.86955 3.47438 6.04835 3.09886 7.02574 3.09886L8.44345 3.09836C8.62612 3.09836 8.77419 2.95222 8.77419 2.77211V0.329578C8.77419 0.149642 8.62629 0.00366197 8.44378 0.00332907Z" fill="#333333"/>
</svg>
