<svg width="36" height="36" viewBox="0 0 36 36" fill="none" xmlns="http://www.w3.org/2000/svg">
  <path d="M23.5547 8.00416L20.9241 8C17.9686 8 16.0587 9.9319 16.0587 12.922V15.1914H13.4136C13.1851 15.1914 13 15.3741 13 15.5994V18.8875C13 19.1128 13.1853 19.2953 13.4136 19.2953H16.0587V27.5922C16.0587 27.8175 16.2437 28 16.4723 28H19.9233C20.1519 28 20.3369 27.8173 20.3369 27.5922V19.2953H23.4296C23.6581 19.2953 23.8432 19.1128 23.8432 18.8875L23.8445 15.5994C23.8445 15.4912 23.8008 15.3876 23.7234 15.311C23.6459 15.2345 23.5404 15.1914 23.4306 15.1914H20.3369V13.2676C20.3369 12.343 20.5604 11.8736 21.7822 11.8736L23.5543 11.873C23.7827 11.873 23.9677 11.6903 23.9677 11.4651V8.41197C23.9677 8.18705 23.7829 8.00458 23.5547 8.00416Z" fill="#595959"/>
</svg>
