<svg xmlns="http://www.w3.org/2000/svg" width="40" height="40" fill="none">
  <ellipse cx="20" cy="20" fill="#FC5000" rx="20" ry="20"/>
  <path fill="#fff" transform="translate(-12,-10)" stroke="#fff" stroke-width=".2" d="M36.3005 29.6658l-2.8951-2.8878c-.2029-.2018-.2027-.5367-.0001-.7388.2073-.2068.5431-.2088.7466.0006l.0006.0006 3.7906 3.7813a.5147.5147 0 0 1 .0001.7399l-3.7913 3.7815c-.2031.2095-.5393.2074-.7465.0008l2.8951-4.6781zm0 0h-9.8773a.5207.5207 0 0 0-.5232.5226c0 .2889.2306.5284.5234.5284h9.8768l-2.8949 2.8821-.0012.0013c-.2003.2068-.2022.5411.0012.7436l2.8952-4.678z"/>
</svg>
