<svg xmlns="http://www.w3.org/2000/svg" width="20" height="15" fill="none">
  <mask id="gb" width="20" height="15" x="0" y="0" maskUnits="userSpaceOnUse">
    <path fill="#fff" d="M18.2.5H1.4C.6268.5 0 1.1268 0 1.9v11.2c0 .7732.6268 1.4 1.4 1.4h16.8c.7732 0 1.4-.6268 1.4-1.4V1.9c0-.7732-.6268-1.4-1.4-1.4z"/>
  </mask>
  <g mask="url(#gb)">
    <path fill="#fff" d="M18.2.5H1.4C.6268.5 0 1.1268 0 1.9v11.2c0 .7732.6268 1.4 1.4 1.4h16.8c.7732 0 1.4-.6268 1.4-1.4V1.9c0-.7732-.6268-1.4-1.4-1.4z"/>
    <path fill="#0A17A7" d="M19.6.5H0v14h19.6V.5z"/>
    <path fill="#fff" fill-rule="evenodd" d="M4.6713 9.8335H-.0003V5.167h4.6716L-1.942.7062-.898-.8413l8.3644 5.6419V-.4331h4.6667v5.2336l8.3644-5.6418L21.5412.7062 14.928 5.167h4.6717v4.6666H14.928l6.6132 4.4607-1.0438 1.5475-8.3644-5.6418v5.2336H7.4663v-5.2336L-.898 15.8417l-1.0438-1.5475 6.6132-4.4607z" clip-rule="evenodd"/>
    <path stroke="#DB1F35" stroke-linecap="round" stroke-width=".6667" d="M13.0674 4.9321l8.8657-5.8325M14.0088 10.0883l7.9477 5.357M5.604 4.917L-2.686-.67M6.5032 10.0228l-9.1892 6.0939"/>
    <path fill="#E6273E" fill-rule="evenodd" d="M0 8.9h8.4v5.6h2.8V8.9h8.4V6.1h-8.4V.5H8.4v5.6H0v2.8z" clip-rule="evenodd"/>
  </g>
</svg>
