<svg xmlns="http://www.w3.org/2000/svg" width="20" height="15" fill="none">
  <mask id="au" width="20" height="15" x="0" y="0" maskUnits="userSpaceOnUse">
    <path fill="#fff" d="M18.2.5H1.4C.6268.5 0 1.1268 0 1.9v11.2c0 .7732.6268 1.4 1.4 1.4h16.8c.7732 0 1.4-.6268 1.4-1.4V1.9c0-.7732-.6268-1.4-1.4-1.4z"/>
  </mask>
  <g mask="url(#au)">
    <path fill="#fff" d="M18.2.5H1.4C.6268.5 0 1.1268 0 1.9v11.2c0 .7732.6268 1.4 1.4 1.4h16.8c.7732 0 1.4-.6268 1.4-1.4V1.9c0-.7732-.6268-1.4-1.4-1.4z"/>
    <path fill="#0A17A7" d="M19.6.5H0v14h19.6V.5z"/>
    <path fill="#FF2E3B" fill-rule="evenodd" stroke="#fff" stroke-width=".6667" d="M3.0332 3.407L-.6308.2662H.4665l.1356.0434L3.808 2.5996h.7916L8.6333.0786V.733c0 .207-.1193.4387-.2922.5622L5.3666 3.4197v.706L8.376 6.7051c.2637.226.1295.561-.2095.561-.1803 0-.4124-.0744-.5636-.1824L4.5918 4.933H3.8L-.2334 7.454V6.4462l3.2666-2.3333v-.706z" clip-rule="evenodd"/>
    <path fill="url(#paint0_linear)" fill-rule="evenodd" d="M0 2.8333V4.7h3.2667v2.3376c0 .2554.2141.4624.471.4624h.9246c.2601 0 .471-.2105.471-.4624V4.7h3.2605c.2612 0 .4729-.2141.4729-.471v-.9246c0-.2602-.2114-.471-.4729-.471H5.1333V.5H3.2667v2.3333H0z" clip-rule="evenodd"/>
    <path fill="url(#paint1_linear)" fill-rule="evenodd" d="M0 3.3h3.7333V.5h.9334v2.8H8.4v.9333H4.6667v2.8h-.9334v-2.8H0V3.3z" clip-rule="evenodd"/>
    <path fill="#fff" fill-rule="evenodd" d="M4.1996 11.933l-.8229.4326.1572-.9163-.6657-.6489.92-.1337.4114-.8337.4115.8337.92.1337-.6657.6489.1571.9163-.8229-.4326zM13.9998 12.633l-.66.1933.1933-.66-.1933-.66.66.1933.66-.1933-.1933.66.1933.66-.66-.1933zM13.9998 3.7663l-.66.1933.1933-.66-.1933-.66.66.1933.66-.1932-.1933.66.1933.6599-.66-.1933zM16.8001 6.5666l-.66.1933.1933-.66-.1933-.66.66.1933.66-.1933-.1933.66.1933.66-.66-.1933zM11.2 7.4997l-.66.1933.1933-.66-.1933-.66.66.1933.66-.1932-.1933.66.1933.6599-.66-.1933zM15.4003 8.6659l-.33.0966.0967-.33-.0967-.33.33.0967.33-.0967-.0967.33.0967.33-.33-.0966z" clip-rule="evenodd"/>
  </g>
  <defs>
    <linearGradient id="paint0_linear" x1="4.4333" x2="4.4333" y1=".5" y2="7.5" gradientUnits="userSpaceOnUse">
      <stop stop-color="#fff"/>
      <stop offset="1" stop-color="#F0F0F0"/>
    </linearGradient>
    <linearGradient id="paint1_linear" x1="4.2" x2="4.2" y1=".5" y2="7.0333" gradientUnits="userSpaceOnUse">
      <stop stop-color="#FF2E3B"/>
      <stop offset="1" stop-color="#FC0D1B"/>
    </linearGradient>
  </defs>
</svg>
