<svg width="20" height="20" viewBox="0 0 20 20" fill="none" xmlns="http://www.w3.org/2000/svg">
<path fill-rule="evenodd" clip-rule="evenodd" d="M13.8202 5.3376C13.1002 4.6616 11.8378 3.8536 9.96658 3.8536C7.33138 3.8536 5.09458 5.592 4.28658 7.9944C4.08738 8.6144 3.96578 9.2792 3.96578 9.9656C3.96578 10.652 4.08738 11.3168 4.29778 11.9368L4.29711 11.9373C5.09482 14.3403 7.33152 16.0785 9.96658 16.0785C11.4498 16.0785 12.5794 15.6689 13.421 15.0817L13.421 15.0816C14.7498 14.1512 15.3482 12.7672 15.4586 11.848H9.96658V8.1496H19.3234C19.4674 8.7696 19.5338 9.36801 19.5338 10.1872C19.5338 13.2208 18.449 15.7793 16.5658 17.5185L16.565 17.5184C14.9154 19.0459 12.6565 19.9312 9.96658 19.9312C6.06898 19.9312 2.70258 17.6944 1.06418 14.4393L1.06422 14.4392L1.06418 14.4392C0.388977 13.088 0.000976562 11.5712 0.000976562 9.9656C0.000976562 8.36 0.388977 6.8432 1.06418 5.4928L1.06482 5.49249L1.06418 5.492C2.70258 2.2368 6.06898 0 9.96658 0C12.6578 0 14.9058 0.9856 16.633 2.5912L13.8202 5.3376Z" fill="white"/>
</svg>
