<svg width="36" height="36" viewBox="0 0 36 36" fill="none" xmlns="http://www.w3.org/2000/svg">
  <path d="M22.5862 8H13.4138C10.4286 8 8 10.4286 8 13.4138V22.5863C8 25.5714 10.4286 28 13.4138 28H22.5863C25.5714 28 28 25.5714 28 22.5863V13.4138C28 10.4286 25.5714 8 22.5862 8V8ZM18 23.4686C14.9846 23.4686 12.5314 21.0154 12.5314 18C12.5314 14.9846 14.9846 12.5314 18 12.5314C21.0154 12.5314 23.4686 14.9846 23.4686 18C23.4686 21.0154 21.0154 23.4686 18 23.4686ZM23.5994 13.8211C22.7083 13.8211 21.9835 13.0963 21.9835 12.2052C21.9835 11.3141 22.7083 10.5891 23.5994 10.5891C24.4905 10.5891 25.2154 11.3141 25.2154 12.2052C25.2154 13.0963 24.4905 13.8211 23.5994 13.8211Z" fill="#595959 "/>
  <path d="M17.9996 13.7139C15.6365 13.7139 13.7139 15.6364 13.7139 17.9996C13.7139 20.3626 15.6365 22.2853 17.9996 22.2853C20.3628 22.2853 22.2853 20.3626 22.2853 17.9996C22.2853 15.6364 20.3628 13.7139 17.9996 13.7139Z" fill="#595959 "/>
</svg>
