<svg width="66" height="60" viewBox="0 0 66 60" fill="none" xmlns="http://www.w3.org/2000/svg"><path d="M58.496 22.04l.084.3.305.057c3.544.67 6.234 3.78 6.234 7.512 0 3.733-2.69 6.843-6.234 7.513l-.305.057-.084.3C54.98 50.354 43.306 59.5 30.091 59.5 13.875 59.5.5 46.125.5 29.91.5 13.696 13.87.5 30.09.5c13.221 0 24.89 8.969 28.406 21.54zm-4.433 15.148l.12-.39-.358-.195c-2.386-1.304-4.02-3.801-4.02-6.694 0-2.892 1.634-5.39 4.02-6.693l.358-.196-.12-.39C50.887 12.27 41.11 4.939 30.091 4.939c-13.766 0-25.153 11.196-25.153 24.971 0 13.77 11.382 25.153 25.153 25.153 11.024 0 20.798-7.518 23.972-17.874z" fill="#FF5D2E" stroke="#fff"/><path d="M30.09 16.314c-7.496 0-13.595 6.099-13.595 13.595s6.1 13.595 13.595 13.595c7.496 0 13.595-6.1 13.595-13.595 0-7.496-6.099-13.595-13.595-13.595z" fill="#FF5D2E"/></svg>