<svg width="36" height="36" viewBox="0 0 25 40" fill="none" xmlns="http://www.w3.org/2000/svg">
  <path d="M28 20.1614V27.5555H23.7134V20.6566C23.7134 18.9235 23.0933 17.7408 21.5417 17.7408C20.3572 17.7408 19.6524 18.5379 19.3423 19.3089C19.2292 19.5846 19.2001 19.9682 19.2001 20.3541V27.5555H14.912C14.912 27.5555 14.9697 15.871 14.912 14.6604H19.1997V16.4882C19.191 16.5019 19.1797 16.5167 19.1715 16.5299H19.1997V16.4882C19.7693 15.6109 20.7867 14.3575 23.0638 14.3575C25.885 14.3574 28 16.2005 28 20.1614ZM10.4265 8.44434C8.95951 8.44434 8 9.40654 8 10.6719C8 11.9096 8.93175 12.901 10.3695 12.901H10.3982C11.8935 12.901 12.8235 11.9098 12.8235 10.6719C12.7953 9.40654 11.8935 8.44434 10.4265 8.44434ZM8.25467 27.5555H12.5411V14.6604H8.25467V27.5555Z" fill="#fff"/>
</svg>
