
<svg width="64" height="64" viewBox="0 0 64 64" fill="none" xmlns="http://www.w3.org/2000/svg"><circle cx="32" cy="30" r="20" fill="#fff" fill-opacity=".4" filter="url(#filter0_d-arrow)"/><circle cx="32.377" cy="29.623" r="15.094" fill="#FC5000" filter="url(#filter1_d-arrow)"/><g clip-path="url(#clip0-arrow)"><path d="M35.564 29.201l-2.144-2.143.07-.071 2.074 2.214zm0 0h-7.396a.422.422 0 1 0 0 .844h7.395l-2.143 2.14h-.001a.428.428 0 0 0 .001.598m2.144-3.582l-1.545-2.736h-.001l-.07.07.071-.07 2.86 2.861m-3.459 3.457l.07-.071-.07.07zm0 0a.42.42 0 0 0 .599-.001m0 0l2.86-2.861m-2.86 2.86l-.001.002-.07-.071.071.07zm2.86-2.86a.414.414 0 0 0 0-.595m0 .595l-.07-.071.071.07zm0-.595l.001.001-.07.07.069-.071z" fill="#fff" stroke="#fff" stroke-width=".2"/></g><defs><filter id="filter0_d-arrow" x="0" y="0" width="64" height="64" filterUnits="userSpaceOnUse" color-interpolation-filters="sRGB"><feFlood flood-opacity="0" result="BackgroundImageFix"/><feColorMatrix in="SourceAlpha" values="0 0 0 0 0 0 0 0 0 0 0 0 0 0 0 0 0 0 127 0"/><feOffset dy="2"/><feGaussianBlur stdDeviation="6"/><feColorMatrix values="0 0 0 0 0.988235 0 0 0 0 0.313726 0 0 0 0 0 0 0 0 0.25 0"/><feBlend in2="BackgroundImageFix" result="effect1_dropShadow"/><feBlend in="SourceGraphic" in2="effect1_dropShadow" result="shape"/></filter><filter id="filter1_d-arrow" x="5.283" y="4.528" width="54.189" height="54.189" filterUnits="userSpaceOnUse" color-interpolation-filters="sRGB"><feFlood flood-opacity="0" result="BackgroundImageFix"/><feColorMatrix in="SourceAlpha" values="0 0 0 0 0 0 0 0 0 0 0 0 0 0 0 0 0 0 127 0"/><feOffset dy="2"/><feGaussianBlur stdDeviation="6"/><feColorMatrix values="0 0 0 0 0.988235 0 0 0 0 0.313726 0 0 0 0 0 0 0 0 0.25 0"/><feBlend in2="BackgroundImageFix" result="effect1_dropShadow"/><feBlend in="SourceGraphic" in2="effect1_dropShadow" result="shape"/></filter><clipPath id="clip0-arrow"><path fill="#fff" transform="translate(27.849 25.095)" d="M0 0h9.057v9.057H0z"/></clipPath></defs></svg>