<svg width="16" height="20" viewBox="0 0 16 20" fill="none" xmlns="http://www.w3.org/2000/svg">
<path d="M7.99886 0C4.00491 0 0.755615 3.2493 0.755615 7.2432C0.755615 12.1998 7.23761 19.4763 7.51358 19.7836C7.7728 20.0723 8.22538 20.0718 8.48413 19.7836C8.76011 19.4763 15.2421 12.1998 15.2421 7.2432C15.242 3.2493 11.9928 0 7.99886 0ZM7.99886 10.8875C5.9894 10.8875 4.35464 9.25266 4.35464 7.2432C4.35464 5.23375 5.98944 3.59898 7.99886 3.59898C10.0083 3.59898 11.643 5.23379 11.643 7.24324C11.643 9.2527 10.0083 10.8875 7.99886 10.8875Z" fill="#595959 "/>
</svg>
