
<svg width="166" height="29" viewBox="0 0 166 29" fill="none" xmlns="http://www.w3.org/2000/svg">
<path d="M46.3984 5.82617V7.71517H41.0296V22.4818H38.7311V7.71517H33.3594V5.82617H46.3984Z" fill="white"/>
<path d="M47.9797 13.5701C48.3715 11.7507 49.6368 10.7148 51.0646 10.7148C51.4325 10.7232 51.7945 10.8093 52.1268 10.9673V13.1581C51.7507 12.9593 51.3303 12.8594 50.905 12.8679C50.1447 12.8679 47.9797 13.2364 47.9797 18.1431V22.4957H45.7451V10.9586H47.9797V13.5701Z" fill="white"/>
<path d="M58.2239 10.7093C59.0388 10.6793 59.8481 10.8556 60.5767 11.2219C61.3052 11.5881 61.9294 12.1324 62.3913 12.8043V10.9589H64.6259V22.4785H62.3913V20.636C61.9294 21.3079 61.3052 21.8522 60.5767 22.2185C59.8481 22.5847 59.0388 22.761 58.2239 22.731C54.7676 22.731 52.5098 20.0121 52.5098 16.7187C52.5098 13.4253 54.7676 10.7093 58.2239 10.7093ZM58.5142 12.6912C56.117 12.6912 54.7589 14.5337 54.7589 16.7216C54.7589 18.9095 56.117 20.752 58.5142 20.752C60.8358 20.752 62.4291 19.0487 62.4523 16.7216C62.4145 14.3945 60.8271 12.6999 58.4996 12.6999L58.5142 12.6912Z" fill="white"/>
<path d="M71.7044 10.7097C72.5203 10.679 73.3306 10.8549 74.0602 11.2212C74.7898 11.5874 75.415 12.1321 75.8776 12.8047V5.82617H78.1122V22.4818H75.8776V20.6392C75.4153 21.3114 74.7905 21.8558 74.0615 22.2221C73.3325 22.5883 72.5227 22.7645 71.7074 22.7342C68.251 22.7342 65.9932 20.0154 65.9932 16.722C65.9932 13.4286 68.2481 10.7097 71.7044 10.7097ZM71.9947 12.6915C69.5975 12.6915 68.222 14.5341 68.222 16.722C68.222 18.9098 69.583 20.7524 71.9947 20.7524C74.3163 20.7524 75.9096 19.0491 75.9328 16.722C75.8979 14.3948 74.3076 12.7002 71.9831 12.7002L71.9947 12.6915Z" fill="white"/>
<path d="M90.9683 20.5921C89.4941 22.249 87.628 22.7335 85.9216 22.7335C81.9138 22.7335 79.4268 20.0379 79.4268 16.7677C79.4268 13.4046 82.0386 10.709 85.6227 10.709C88.6641 10.709 91.4965 12.6676 91.4965 16.9273H81.6643C81.5946 19.1616 83.391 20.7517 85.9477 20.7517C87.3419 20.7533 88.6867 20.2362 89.7204 19.3008L90.9683 20.5921ZM81.8674 15.2008H89.1922C88.5712 13.1058 86.9373 12.6676 85.6691 12.6676C84.3139 12.6676 82.6307 13.1957 81.8703 15.2008H81.8674Z" fill="white"/>
<path d="M102.135 10.5472V22.4818H99.8311V5.82617H101.537L110.36 18.2424V5.82617H112.681V22.4818H110.992L102.135 10.5472Z" fill="white"/>
<path d="M120.018 10.7094C120.833 10.6791 121.643 10.8553 122.372 11.2216C123.101 11.5878 123.726 12.1323 124.188 12.8044V10.9589H126.423V22.4786H124.188V20.636C123.726 21.3082 123.101 21.8526 122.372 22.2189C121.643 22.5851 120.833 22.7613 120.018 22.731C116.564 22.731 114.307 20.0122 114.307 16.7188C114.307 13.4254 116.564 10.7094 120.018 10.7094ZM120.308 12.6912C117.911 12.6912 116.553 14.5338 116.553 16.7217C116.553 18.9095 117.911 20.7521 120.308 20.7521C122.63 20.7521 124.223 19.0488 124.246 16.7217C124.211 14.3945 122.621 12.6999 120.297 12.6999L120.308 12.6912Z" fill="white"/>
<path d="M138.585 5.82624C138.792 5.8243 138.996 5.86351 139.187 5.94157C139.378 6.01963 139.552 6.13497 139.698 6.28086C139.844 6.42675 139.959 6.60026 140.037 6.79124C140.115 6.98222 140.154 7.18684 140.152 7.39314C140.154 7.59817 140.114 7.80135 140.035 7.99071C139.956 8.18007 139.841 8.35176 139.695 8.49565C139.549 8.63954 139.375 8.75271 139.185 8.82848C138.994 8.90426 138.79 8.9411 138.585 8.93684C138.381 8.94078 138.179 8.90354 137.99 8.82736C137.801 8.75118 137.629 8.63762 137.485 8.49348C137.341 8.34935 137.227 8.1776 137.151 7.98852C137.075 7.79945 137.037 7.59695 137.041 7.39314C137.037 7.18816 137.074 6.9844 137.15 6.79389C137.226 6.60338 137.339 6.42998 137.483 6.28393C137.627 6.13788 137.798 6.02213 137.988 5.94352C138.177 5.86491 138.38 5.82503 138.585 5.82624Z" fill="white"/>
<path d="M139.718 10.9648H137.483V22.4816H139.718V10.9648Z" fill="white"/>
<path d="M147.107 10.709C148.295 10.7136 149.455 11.0701 150.441 11.7335C151.427 12.3969 152.194 13.3375 152.645 14.4365C153.097 15.5355 153.213 16.7436 152.978 17.9084C152.743 19.0731 152.169 20.1422 151.327 20.9807C150.485 21.8192 149.414 22.3895 148.248 22.6196C147.082 22.8498 145.874 22.7294 144.777 22.2736C143.68 21.8179 142.742 21.0473 142.082 20.0591C141.422 19.0709 141.07 17.9094 141.07 16.7213C141.082 15.1262 141.722 13.6001 142.852 12.4744C143.983 11.3487 145.511 10.7143 147.107 10.709ZM147.107 20.7517C149.225 20.7517 150.932 18.9555 150.932 16.7445C150.932 14.5334 149.225 12.6821 147.107 12.6821C144.988 12.6821 143.305 14.5015 143.305 16.7445C143.305 18.9875 145.011 20.7517 147.107 20.7517Z" fill="white"/>
<path d="M162.815 15.9844C162.815 13.5441 161.686 12.691 160.464 12.691C159.242 12.691 156.755 13.4976 156.755 17.1363V22.4812H154.523V10.9587H156.758V13.28C157.24 11.6464 158.737 10.7236 160.629 10.7236C163.116 10.7236 165.052 12.2905 165.052 15.9989V22.4957H162.818L162.815 15.9844Z" fill="white"/>
<path d="M133.466 20.7756C132.706 20.7756 132.082 20.2678 132.082 19.0027V12.7147H135.686V10.9737H132.082V7.64551H129.856V10.9592H127.967V12.7002H129.856V18.8257C129.856 21.7738 131.632 22.7197 133.452 22.7197C134.247 22.7471 135.03 22.527 135.695 22.0901L134.209 20.6131C133.977 20.7236 133.723 20.7792 133.466 20.7756Z" fill="white"/>
<path d="M6.39062 18.0215V28.0178H13.3904L6.39062 18.0215Z" fill="white"/>
<path d="M0 0.527344V6.88492H5.8738H6.39037L14.2318 18.0825V6.88492H14.2637H20.6221V0.527344H0Z" fill="white"/>
</svg>
