<svg xmlns="http://www.w3.org/2000/svg" width="23" height="24" fill="none">
  <path fill="#3C3C3B" stroke="#fff" stroke-width=".1" d="M4.4567 22.6748h6.2598c.3495 0 .6376.2834.6376.6376a.6347.6347 0 0 1-.6376.6376H4.4567C2.0293 23.95.05 21.9757.05 19.5433V4.4567C.05 2.0293 2.0243.05 4.4567.05h6.3616a.6347.6347 0 0 1 .6376.6376.6347.6347 0 0 1-.6376.6376H4.4567c-1.7236 0-3.1315 1.4027-3.1315 3.1315v15.0866c0 1.7237 1.4027 3.1315 3.1315 3.1315z"/>
  <path fill="#3C3C3B" stroke="#fff" stroke-width=".1" d="M22.0088 11.5513l.0003.0003c.2496.2449.2506.651-.0054.9069l-4.3701 4.3701-.0007.0007c-.1222.127-.2871.1884-.4478.1884-.1599 0-.3254-.066-.4485-.1891a.6354.6354 0 0 1 0-.9021l3.1986-3.1986.0854-.0854H5.9491a.6347.6347 0 0 1-.6376-.6376.6347.6347 0 0 1 .6376-.6376H20.0206l-.0854-.0854-3.1986-3.1986a.6354.6354 0 0 1 0-.9021.6355.6355 0 0 1 .9021 0l4.3701 4.3701z"/>
</svg>
