<svg xmlns="http://www.w3.org/2000/svg" width="23" height="16" fill="none">
  <path fill="#595959 " stroke="#595959 " stroke-width=".3" d="M2.701 15.65h17.6976c1.0203 0 1.8509-.8298 1.8509-1.8509V2.2009c0-1.021-.8306-1.8509-1.8509-1.8509H2.7009C1.6806.35.85 1.1798.85 2.201V13.799c0 1.0211.8306 1.8509 1.851 1.8509zM1.8303 2.201c0-.48.3907-.8706.8705-.8706h17.6977c.4798 0 .8705.3907.8705.8705v11.5982c0 .4798-.3907.8705-.8705.8705H2.7009c-.4798 0-.8705-.3907-.8705-.8705V2.2009z"/>
  <path fill="#595959 " stroke="#595959 " stroke-width=".3" d="M1.5076 1.7945l-.0002-.0002a.4896.4896 0 0 1-.047-.691.4898.4898 0 0 1 .6919-.048l8.6937 7.5772-9.3384-6.838zm0 0l8.6944 7.5772c.3745.3265.8632.4874 1.3477.4874.4845 0 .9732-.161 1.3478-.4881l8.6922-7.5758.0002-.0002M1.5076 1.7945l20.0823.0005m0 0a.4896.4896 0 0 0 .0469-.6912l-.0469.6912zm-9.3366 6.8376l8.6908-7.5759.0004-.0003c.2039-.1799.5131-.158.6922.0473l-9.3834 7.5289zm0 0c-.3776.329-1.0283.3297-1.4072 0h1.4072z"/>
</svg>
