<svg width="50" height="52" viewBox="0 0 50 52" fill="none" xmlns="http://www.w3.org/2000/svg">
<path d="M25 1C31.6304 1 37.9893 3.63392 42.6777 8.32233C47.3661 13.0107 50 19.3696 50 26C50 32.6304 47.3661 38.9893 42.6777 43.6777C37.9893 48.3661 31.6304 51 25 51V47.7818C30.7769 47.7818 36.3172 45.4869 40.4021 41.4021C44.4869 37.3172 46.7818 31.7769 46.7818 26C46.7818 20.2231 44.4869 14.6828 40.4021 10.5979C36.3172 6.51306 30.7769 4.2182 25 4.2182V1Z" fill="#2DE0E8"/>
<path d="M25 51C18.3696 51 12.0107 48.3661 7.32233 43.6777C2.63393 38.9893 2.97718e-06 32.6304 0 26C-2.97718e-06 19.3696 2.63391 13.0108 7.32232 8.32234C12.0107 3.63393 18.3696 1.00001 25 1L25 4.2182C19.2231 4.2182 13.6828 6.51307 9.59793 10.5979C5.51305 14.6828 3.21819 20.2231 3.2182 26C3.2182 31.7769 5.51306 37.3172 9.59794 41.4021C13.6828 45.4869 19.2231 47.7818 25 47.7818L25 51Z" fill="#2DE0E8"/>
<rect x="24" width="2" height="52" fill="white"/>
<path d="M30.3335 38L23.7902 30L36.8768 30L30.3335 38Z" fill="#2DE0E8"/>
<path d="M20.5556 14L27.0989 22H14.0123L20.5556 14Z" fill="#2DE0E8"/>
</svg>
