<svg width="24" height="24" viewBox="0 0 24 24" fill="none" xmlns="http://www.w3.org/2000/svg">
<path d="M22 3.59998H2C0.895898 3.60134 0.00136719 4.49587 0 5.59998V18.4C0.00136719 19.5041 0.895898 20.3986 2 20.4H22C23.1041 20.3986 23.9986 19.5041 24 18.4V5.59998C23.9986 4.49587 23.1041 3.60134 22 3.59998ZM2 4.39998H22C22.6627 4.39998 23.2 4.93728 23.2 5.59998V6.79998H0.8V5.59998C0.8 4.93728 1.3373 4.39998 2 4.39998ZM23.2 9.99998H0.8V7.59998H23.2V9.99998ZM22 19.6H2C1.3373 19.6 0.8 19.0627 0.8 18.4V10.8H23.2V18.4C23.2 19.0627 22.6627 19.6 22 19.6Z" fill="#3C3C3B"/>
<path d="M21.6 17.2H11.2C10.9792 17.2 10.8 17.3791 10.8 17.6C10.8 17.8209 10.9792 18 11.2 18H21.6C21.8209 18 22 17.8209 22 17.6C22 17.3791 21.8209 17.2 21.6 17.2Z" fill="#3C3C3B"/>
</svg>
