<svg fill="none" height="20" viewBox="0 0 20 20" width="20" xmlns="http://www.w3.org/2000/svg"><path d="m19.5513 15.805-3.0887-3.089c-.6152-.6128-1.634-.5942-2.2707.0427l-1.556 1.5558c-.0984-.0542-.2001-.1108-.3071-.1709-.9827-.5444-2.3276-1.2907-3.74285-2.707-1.41946-1.4193-2.16642-2.7663-2.71257-3.74959-.05763-.10417-.11284-.20461-.16737-.29999l1.04436-1.04282.51345-.51408c.63762-.63779.6552-1.6563.04143-2.27082l-3.08868-3.089371c-.61377-.613658-1.63303-.595041-2.27065.042749l-.8705.875492.02379.02362c-.291888.37245-.5358.80201-.717311 1.26524-.16732.44093-.271492.8617-.3191252 1.28333-.4078408 3.38109 1.1372162 6.47114 5.3303162 10.66434 5.79611 5.7957 10.46701 5.3579 10.66851 5.3365.4389-.0525.8595-.1573 1.2869-.3233.4593-.1794.8885-.423 1.2607-.7142l.0191.0169.8818-.8636c.6363-.6377.6547-1.6565.0412-2.272z" fill="#595959 "/></svg>