<svg width="22" height="22" viewBox="0 0 22 22" fill="none" xmlns="http://www.w3.org/2000/svg">
<path d="M14.4847 11.4352L14.1586 11.6598L14.5329 11.789C16.06 12.316 17.4601 13.1865 18.6368 14.3632C20.6297 16.3562 21.7475 18.9897 21.7982 21.8H20.4792C20.3724 16.6638 16.1613 12.5188 11 12.5188C5.83867 12.5188 1.62764 16.6638 1.52083 21.8H0.201802C0.25247 18.9897 1.37035 16.3562 3.36326 14.3632C4.53998 13.1865 5.94001 12.316 7.46712 11.789L7.84144 11.6598L7.51533 11.4352C5.90053 10.3231 4.84062 8.46255 4.84062 6.35938C4.84062 2.96328 7.60391 0.2 11 0.2C14.3961 0.2 17.1594 2.96328 17.1594 6.35938C17.1594 8.46255 16.0995 10.3231 14.4847 11.4352ZM6.15938 6.35938C6.15938 9.02871 8.33071 11.2 11 11.2C13.6693 11.2 15.8406 9.02871 15.8406 6.35938C15.8406 3.69004 13.6693 1.51875 11 1.51875C8.33071 1.51875 6.15938 3.69004 6.15938 6.35938Z" fill="#3C3C3B" stroke="white" stroke-width="0.4"/>
</svg>
