<svg width="33" height="29" viewBox="0 0 33 29" fill="none" xmlns="http://www.w3.org/2000/svg">
<path d="M9.89922 15.7C11.2326 16.1667 12.2659 16.9333 12.9992 18C13.7326 19.0667 14.0992 20.3667 14.0992 21.9C14.0992 23.9 13.4659 25.5333 12.1992 26.8C10.9326 28.0667 9.36589 28.7 7.49922 28.7C5.56589 28.7 3.96589 28.0667 2.69922 26.8C1.43255 25.4667 0.799219 23.8333 0.799219 21.9C0.799219 20.9667 0.899219 20.0333 1.09922 19.1C1.36589 18.1 1.86589 16.6667 2.59922 14.8L7.29922 0.799996H13.5992L9.89922 15.7ZM28.7992 15.7C30.1326 16.1667 31.1659 16.9333 31.8992 18C32.6326 19.0667 32.9992 20.3667 32.9992 21.9C32.9992 23.9 32.3659 25.5333 31.0992 26.8C29.8326 28.0667 28.2659 28.7 26.3992 28.7C24.4659 28.7 22.8659 28.0667 21.5992 26.8C20.3326 25.4667 19.6992 23.8333 19.6992 21.9C19.6992 20.9667 19.7992 20.0333 19.9992 19.1C20.2659 18.1 20.7659 16.6667 21.4992 14.8L26.1992 0.799996H32.4992L28.7992 15.7Z" fill="white" fill-opacity="0.5"/>
</svg>
