<svg width="40" height="40" viewBox="0 0 40 40" fill="none" xmlns="http://www.w3.org/2000/svg">
  <path d="M20 40C31.0457 40 40 31.0457 40 20C40 8.9543 31.0457 0 20 0C8.9543 0 0 8.9543 0 20C0 31.0457 8.9543 40 20 40Z" fill="#FC5000"/>
  <path d="M24.3014 19.4736H14.4238C14.1329 19.4741 13.9004 19.7062 13.9004 19.9974C13.9004 20.2866 14.1308 20.5268 14.4238 20.5268H24.3011L21.4057 23.4168L21.4044 23.4181C21.2042 23.6254 21.2023 23.9603 21.4057 24.1632C21.613 24.3704 21.9492 24.3725 22.1524 24.1625L25.9436 20.3712C26.1526 20.1686 26.1527 19.8323 25.9436 19.6299L22.5224 16.2084C22.3181 16.0041 21.987 16.0031 21.7814 16.2063V16.2063C21.5743 16.4112 21.5733 16.7455 21.7793 16.9515L24.3014 19.4736Z" fill="white" stroke="white" stroke-width="0.2"/>
</svg>
