<?xml version="1.0" encoding="UTF-8" standalone="no"?>
<svg width="121px" height="20px" viewBox="0 0 461 76" version="1.1" xmlns="http://www.w3.org/2000/svg" xmlns:xlink="http://www.w3.org/1999/xlink">
    <!-- Generator: Sketch 44 (41411) - http://www.bohemiancoding.com/sketch -->
    <title>Logo</title>
    <desc>SafeCharge Logo.</desc>
    <defs>
        <polygon id="path-1" points="0 55.9783254 0 70.3983051 451.859538 70.3983051 451.859538 0.241279661 0 0.241279661 0 55.9783254 53.1444552 55.9783254 53.1444552 1.88535085 -6.00265604e-05 1.88535085 -6.00265604e-05 55.9783254"></polygon>
    </defs>
    <g id="V3-Mobile---updates" stroke="none" stroke-width="1" fill="none" fill-rule="evenodd">
        <g id="Touch-Bar">
            <g id="Page-1" transform="translate(5.000000, 3.000000)">
                <path d="M356.731786,70.7588407 L377.079589,70.7588407 C389.900062,70.7588407 395.267037,66.3508237 398.09909,53.051561 L404.360461,23.3898068 C405.254856,19.2802305 403.316599,15.8433492 398.397422,15.8433492 L382.744896,15.8433492 C368.58283,15.8433492 364.110851,22.7923237 361.278198,34.8208068 C358.445544,46.9251034 362.09816,56.3386203 375.067499,56.3386203 L385.651982,56.3386203 C384.682554,60.9710695 381.552168,61.8675949 376.856291,61.8675949 L358.670044,61.8675949 L356.731786,70.7588407 Z M378.794548,47.5971966 C372.607611,47.5971966 372.234846,43.3384 373.353141,36.3154169 C374.397002,29.8899169 376.781858,24.5853746 383.862591,24.5853746 L389.527897,24.5853746 C391.688854,24.5853746 392.136052,25.7809424 391.763287,27.4241712 L387.515207,47.5971966 L378.794548,47.5971966 Z" id="Fill-1" fill="#00C7B1"></path>
                <path d="M324.82977,56.3387407 L336.680814,56.3387407 L342.420554,29.6656051 C343.314949,25.4814186 346.07317,24.5854949 349.57632,24.5854949 L353.303369,24.5854949 C356.955385,24.5854949 360.608001,23.1654949 360.608001,19.1311305 C360.608001,18.1599949 360.457935,16.6653847 359.637972,15.3205966 C358.967475,15.6942492 357.402583,15.8434695 355.687624,15.8434695 L347.563629,15.8434695 C339.5879,15.8434695 332.731066,19.2057407 330.495077,29.6656051 L324.82977,56.3387407 Z" id="Fill-4" fill="#00C7B1"></path>
                <path d="M132.52586,9.94120339 C137.594503,9.94120339 140.724888,7.32623729 140.724888,4.03857627 C140.724888,2.91822034 140.501589,1.72265254 139.979358,0.60229661 C139.979358,0.60229661 138.488898,1.12516949 134.836882,1.12516949 L128.128314,1.12516949 C119.332622,1.12516949 112.77352,4.63666102 110.388665,15.8438305 L104.723958,15.8438305 L102.935167,23.9125593 L108.897605,23.9125593 L101.965738,56.3385 L113.742348,56.3385 L120.823682,23.9125593 L129.693206,23.9125593 L131.482598,15.8438305 L122.239708,15.8438305 C123.134104,11.2113814 125.892325,9.94120339 129.321042,9.94120339 L132.52586,9.94120339 Z" id="Fill-6" fill="#00C7B1"></path>
                <path d="M295.611422,47.7469585 C293.300999,47.7469585 291.661074,46.4021703 291.661074,44.0856449 C291.661074,40.8731958 293.82323,39.0055347 296.729716,39.0055347 L309.251857,39.0055347 L308.059129,44.7583398 C307.686364,46.700611 306.344771,47.7469585 304.630412,47.7469585 L295.611422,47.7469585 Z M292.629902,56.3385602 L308.655193,56.3385602 C314.543799,56.3385602 317.302019,53.5743737 318.270848,48.7927042 L322.518927,27.4993229 C322.668394,26.7520178 322.742827,26.0793229 322.742827,25.4072297 C322.742827,19.9528653 318.345281,15.8438907 312.382242,15.8438907 L288.157924,15.8438907 L286.518598,24.3608822 L307.611931,24.3608822 C309.848521,24.3608822 311.189514,25.2580093 311.189514,26.9758483 C311.189514,27.2002805 311.189514,27.424111 311.115082,27.7231534 L310.519018,30.8609924 L294.493727,30.8609924 C284.580341,30.8609924 279.958896,35.4934415 279.586731,44.0856449 C279.213966,52.3041958 283.685945,56.3385602 292.629902,56.3385602 L292.629902,56.3385602 Z" id="Fill-8" fill="#00C7B1"></path>
                <path d="M229.945066,56.3387407 L241.796109,56.3387407 L248.653544,24.6601051 L256.55424,24.6601051 C263.337241,24.6601051 264.604402,26.5277661 263.039509,33.4015288 L257.895833,56.3387407 L269.82251,56.3387407 L275.486617,30.3383 C277.350441,21.6714864 271.461836,15.8434695 261.622882,15.8434695 L250.591801,15.8434695 L253.125522,2.76863898 L241.200046,2.76863898 L229.945066,56.3387407 Z" id="Fill-10" fill="#00C7B1"></path>
                <path d="M205.646014,56.3387407 L222.416835,56.3387407 L224.503958,45.8788763 L210.78909,45.8788763 C199.682975,45.8788763 193.422205,43.3385203 195.583761,29.068122 C197.446986,16.8146051 202.590062,13.2291051 214.81387,13.2291051 L223.609562,13.2291051 C228.827071,13.2291051 232.181355,9.94144407 232.181355,6.0563 C232.181355,4.78612203 231.883023,3.51594407 231.212526,2.2457661 C231.212526,2.2457661 229.944765,2.76863898 226.442216,2.76863898 L214.739437,2.76863898 C195.732627,2.76863898 185.819241,10.5389271 183.061621,28.3208169 C180.228967,46.4763593 189.397424,56.3387407 205.646014,56.3387407" id="Fill-12" fill="#00C7B1"></path>
                <path d="M146.016889,56.3387407 L168.30295,56.3387407 L170.241208,47.5973169 L150.861633,47.5973169 C145.718557,47.5973169 143.631434,46.1779186 143.929766,42.8156475 L144.153665,39.901639 L163.234908,39.901639 C173.371593,39.901639 175.757049,32.7288339 175.757049,27.200461 C175.757049,18.2346051 168.750748,15.2459864 156.377474,15.2459864 C142.140974,15.2459864 136.476268,19.0565203 133.27145,33.6999695 C130.215497,47.747139 132.600353,56.3387407 146.016889,56.3387407 L146.016889,56.3387407 Z M146.091922,31.6830881 C147.209617,25.7058508 150.489468,23.6883678 156.004709,23.6883678 C159.955057,23.6883678 163.53324,24.8093254 163.53324,28.2462068 C163.53324,30.4875203 161.967747,31.6830881 160.551721,31.6830881 L146.091922,31.6830881 Z" id="Fill-14" fill="#00C7B1"></path>
                <path d="M422.119739,56.3387407 L444.4058,56.3387407 L446.343457,47.5973169 L426.964482,47.5973169 C421.821407,47.5973169 419.734283,46.1779186 420.032015,42.8156475 L420.256514,39.901639 L439.337757,39.901639 C449.474442,39.901639 451.859898,32.7288339 451.859898,27.200461 C451.859898,18.2346051 444.852998,15.2459864 432.480323,15.2459864 C418.243824,15.2459864 412.578517,19.0565203 409.374299,33.6999695 C406.317747,47.747139 408.702602,56.3387407 422.119739,56.3387407 L422.119739,56.3387407 Z M422.194172,31.6830881 C423.311866,25.7058508 426.591717,23.6883678 432.107558,23.6883678 C436.057906,23.6883678 439.636089,24.8093254 439.636089,28.2462068 C439.636089,30.4875203 438.069996,31.6830881 436.65457,31.6830881 L422.194172,31.6830881 Z" id="Fill-16" fill="#00C7B1"></path>
                <path d="M69.616944,47.7469585 C67.3065216,47.7469585 65.666596,46.4021703 65.666596,44.0856449 C65.666596,40.8731958 67.8281525,39.0055347 70.7352388,39.0055347 L83.2573795,39.0055347 L82.0646518,44.7583398 C81.6918869,46.700611 80.3502932,47.7469585 78.6359347,47.7469585 L69.616944,47.7469585 Z M66.6354247,56.3385602 L82.6607155,56.3385602 C88.5493211,56.3385602 91.3069413,53.5743737 92.2763703,48.7927042 L96.5250502,27.4993229 C96.6739161,26.7520178 96.748349,26.0793229 96.748349,25.4072297 C96.748349,19.9528653 92.3508032,15.8438907 86.3877647,15.8438907 L62.1634459,15.8438907 L60.5235203,24.3608822 L81.6174539,24.3608822 C83.8534433,24.3608822 85.1950369,25.2580093 85.1950369,26.9758483 C85.1950369,27.2002805 85.1950369,27.424111 85.120604,27.7231534 L84.52394,30.8609924 L68.4992494,30.8609924 C58.5858629,30.8609924 53.9644181,35.4934415 53.5916531,44.0856449 C53.2188882,52.3041958 57.6908669,56.3385602 66.6354247,56.3385602 L66.6354247,56.3385602 Z" id="Fill-19" fill="#00C7B1"></path>
                <g id="Group-23" transform="translate(0.000000, 0.360415)">
                    <mask id="mask-2" fill="white">
                        <use xlink:href="#path-1"></use>
                    </mask>
                    <g id="Clip-22"></g>
                    <path d="M-6.00265604e-05,55.9783254 L26.9074459,55.9783254 C39.3551538,55.9783254 47.5541817,50.5991729 48.0758125,39.1681729 C48.4485774,30.5007576 44.4237965,23.8508254 33.8399134,23.8508254 L23.7026279,23.8508254 C19.677847,23.8508254 18.1123543,21.9831644 18.2612202,19.1443678 C18.4851193,15.1846136 21.0194406,12.8686898 26.5352813,12.8686898 L44.4237965,12.8686898 C49.790171,12.8686898 53.1444552,9.50581695 53.1444552,5.3222322 C53.1444552,4.20127458 52.9211564,3.00570678 52.3989254,1.88535085 C52.3989254,1.88535085 50.9084659,2.40822373 47.2564499,2.40822373 L26.5352813,2.40822373 C14.5347713,2.40822373 6.26131049,8.16102881 5.73967968,19.0691559 C5.21744861,29.3051898 11.5532521,34.0122492 20.2739108,34.0122492 L29.4417673,34.0122492 C33.6160143,34.0122492 35.6281046,35.5068593 35.4048058,38.9437407 C35.1064738,43.5761898 32.1255548,45.518461 26.9074459,45.518461 L2.08706348,45.518461 L-6.00265604e-05,55.9783254 Z" id="Fill-21" fill="#00C7B1"></path>
                </g>
            </g>
        </g>
    </g>
</svg>