<svg width="32" height="32" fill="none" xmlns="http://www.w3.org/2000/svg" aria-labelledby="title"><title id="title">Speech bubble</title><g clip-path="url(#clip0)" fill="#2DE0E8"><path d="M22.154 11.077C22.154 4.959 17.194 0 11.077 0 4.959 0 0 4.96 0 11.077c0 2.315.71 4.464 1.925 6.242L.47 21.683l4.365-1.454a11.025 11.025 0 0 0 6.242 1.925c6.118 0 11.077-4.96 11.077-11.077z"/><path d="M32 20.923c0-4.96-3.261-9.158-7.756-10.57a13.106 13.106 0 0 1-1.017 5.857 13.141 13.141 0 0 1-2.826 4.191 13.141 13.141 0 0 1-10.048 3.842c1.41 4.495 5.61 7.757 10.57 7.757 2.315 0 4.464-.71 6.242-1.925l4.365 1.454-1.455-4.364A11.025 11.025 0 0 0 32 20.923z"/></g><defs><clipPath id="clip0"><path fill="#fff" d="M0 0h32v32H0z"/></clipPath></defs></svg>