<svg width="42" height="42" viewBox="0 0 42 42" fill="none" xmlns="http://www.w3.org/2000/svg"><path d="M21 0c-4.906 0-9.68 1.74-13.443 4.9l-.718.603c.255.625.626 1.106.626 1.88a2.464 2.464 0 0 1-2.461 2.46c-.408 0-.766-.145-1.537-.338l-.475.805C1.09 13.535 0 17.286 0 21c0 11.534 9.466 21 21 21s21-9.466 21-21S32.534 0 21 0zm-6.152 7.383h2.46v2.46h-2.46v-2.46zm1.23 27.234a3.696 3.696 0 0 1-3.691-3.691 3.696 3.696 0 0 1 3.691-3.692 3.696 3.696 0 0 1 3.692 3.692 3.696 3.696 0 0 1-3.692 3.691zm12.305 0a6.16 6.16 0 0 1-6.152-6.152 6.16 6.16 0 0 1 6.152-6.152 6.16 6.16 0 0 1 6.152 6.152 6.16 6.16 0 0 1-6.152 6.152zm3.691-17.39a2.464 2.464 0 0 1-2.46-2.461 2.464 2.464 0 0 1 2.46-2.461 2.464 2.464 0 0 1 2.461 2.46 2.464 2.464 0 0 1-2.46 2.462z" fill="#fff"/></svg>