<svg width="24" height="24" viewBox="0 0 24 24" fill="none" xmlns="http://www.w3.org/2000/svg">
<path d="M19.5014 5.88934C19.1476 5.53559 18.5742 5.53559 18.2203 5.88934C17.8665 6.24309 17.8665 6.81654 18.2203 7.17029C19.8825 8.83253 20.7979 11.0426 20.7979 13.3934C20.7979 15.7441 19.8825 17.954 18.2203 19.6161C16.5049 21.3316 14.2519 22.1893 11.9984 22.189C9.74483 22.1889 7.49079 21.331 5.77517 19.6154C2.34452 16.1848 2.34489 10.6025 5.77577 7.17162C6.12952 6.81786 6.12952 6.2443 5.77577 5.89067C5.42202 5.53691 4.84857 5.53691 4.4947 5.89067C0.357517 10.0278 0.357156 16.7595 4.4941 20.8965C6.56323 22.9656 9.28069 24.0001 11.9985 23.9999C14.7156 23.9998 17.4331 22.9656 19.5015 20.8972C21.5058 18.893 22.6095 16.2281 22.6095 13.3935C22.6096 10.5588 21.5058 7.89374 19.5014 5.88934Z" fill="white"/>
<path d="M11.9966 11.7351C12.497 11.7351 12.9025 11.3295 12.9025 10.8293V0.90582C12.9025 0.405566 12.497 0 11.9966 0C11.4963 0 11.0908 0.405566 11.0908 0.90582V10.8293C11.0908 11.3296 11.4963 11.7351 11.9966 11.7351Z" fill="white"/>
</svg>
