<svg width="36" height="36" viewBox="0 0 36 36" fill="none" xmlns="http://www.w3.org/2000/svg">
  <path d="M29.6364 10.3708C29.4783 10.7092 29.184 11.1365 28.7536 11.6529C28.3232 12.1694 27.7918 12.6234 27.1594 13.0152C27.1769 13.1577 27.1902 13.2912 27.1989 13.4159C27.2077 13.5405 27.2121 13.6741 27.2121 13.8165C27.2121 14.5644 27.1287 15.3836 26.9618 16.2739C26.795 17.1643 26.5357 18.068 26.1845 18.9851C25.8332 19.9022 25.3896 20.8103 24.8538 21.7096C24.318 22.6089 23.6812 23.4413 22.9434 24.2071C22.2056 24.9728 21.3668 25.6496 20.4269 26.2372C19.4872 26.8249 18.4374 27.2611 17.2781 27.5459C15.9254 27.8487 14.5727 28 13.2201 28C12.6404 28 12.0387 27.9688 11.4151 27.9065C10.7914 27.8441 10.1678 27.7284 9.54419 27.5593C8.92056 27.3901 8.30571 27.1631 7.69965 26.8781C7.09355 26.5934 6.52701 26.2282 6 25.783C7.37023 25.9789 8.66579 25.8676 9.8867 25.4491C11.1076 25.0306 12.2187 24.4387 13.22 23.673C12.9917 23.673 12.6886 23.6506 12.3109 23.6062C11.9333 23.5616 11.5292 23.4281 11.0988 23.2055C10.6684 22.9828 10.2336 22.6401 9.79447 22.1771C9.3553 21.7143 8.96882 21.0642 8.63505 20.2272C8.74045 20.2627 8.88538 20.2851 9.06983 20.294C9.25429 20.3029 9.45192 20.2985 9.66272 20.2805C9.87352 20.2626 10.0799 20.2404 10.282 20.2139C10.484 20.1872 10.664 20.156 10.8221 20.1202C9.90866 19.8354 9.1928 19.4569 8.67458 18.985C8.15635 18.5131 7.77427 18.0279 7.52833 17.5293C7.28239 17.0307 7.12868 16.5588 7.0672 16.1137C7.00571 15.6685 6.97497 15.3212 6.97497 15.0719C7.20334 15.2144 7.53711 15.3658 7.97629 15.526C8.41546 15.6863 8.81072 15.7575 9.16206 15.7397C8.44181 15.1343 7.9192 14.5333 7.59421 13.9367C7.26922 13.3402 7.07598 12.7614 7.01449 12.2005C6.95301 11.6396 6.98375 11.092 7.10672 10.5578C7.22969 10.0236 7.39658 9.50717 7.60738 9.00857C8.57357 10.1126 9.53536 11.0074 10.4928 11.693C11.4502 12.3786 12.3636 12.9084 13.2332 13.2823C14.1028 13.6563 14.9153 13.9056 15.6706 14.0302C16.426 14.1549 17.0848 14.2172 17.6469 14.2172C17.5415 13.5049 17.5371 12.8282 17.6336 12.1872C17.7302 11.5461 17.9324 10.9585 18.2397 10.4242C18.5472 9.89002 18.9556 9.43149 19.465 9.04863C19.9745 8.66578 20.5805 8.37641 21.2833 8.18053C22.1439 7.93123 22.9697 7.94013 23.7601 8.20724C24.5506 8.47435 25.2269 8.93738 25.7891 9.59621C26.035 9.5784 26.4215 9.49827 26.9486 9.35581C27.4755 9.21335 28.1344 8.90172 28.9248 8.42093C28.8721 8.599 28.7887 8.81714 28.6745 9.07534C28.5603 9.33355 28.4153 9.59621 28.2397 9.86331C28.064 10.1304 27.8531 10.3886 27.6072 10.6379C27.3613 10.8872 27.0802 11.092 26.764 11.2523C27.0275 11.1989 27.3174 11.1365 27.6335 11.0653C27.8969 10.9941 28.2045 10.9006 28.5558 10.7848C28.9072 10.6691 29.2675 10.5311 29.6364 10.3708Z" fill="#595959 "/>
</svg>
