<svg width="36" height="36" viewBox="0 0 36 36" fill="none" xmlns="http://www.w3.org/2000/svg"><g clip-path="url(#clip0-win)" fill="#2DE0E8"><path d="M24.583 6.583c-1.41 0-2.755.257-4.004.72a14.045 14.045 0 0 1 4.915 10.69c0 4.276-1.91 8.11-4.915 10.69 1.25.47 2.594.72 4.004.72C30.887 29.403 36 24.289 36 17.985c0-6.288-5.113-11.402-11.417-11.402z"/><path d="M11.417 6.583C5.113 6.583 0 11.697 0 18c0 6.304 5.113 11.417 11.417 11.417 6.304 0 11.417-5.113 11.417-11.417 0-6.303-5.113-11.417-11.417-11.417z"/></g><defs><clipPath id="clip0-win"><path fill="#fff" d="M0 0h36v36H0z"/></clipPath></defs></svg>