<svg width="22" height="22" fill="none" xmlns="http://www.w3.org/2000/svg"><path d="M10.995 0C4.917 0 0 4.923 0 11c0 6.078 4.917 11 10.995 11C17.072 22 22 17.078 22 11c0-6.077-4.928-11-11.005-11zM11 2.238A15.233 15.233 0 0 1 13.101 6.6H8.899A15.232 15.232 0 0 1 11 2.238zM2.486 13.2A8.804 8.804 0 0 1 2.2 11c0-.759.104-1.496.286-2.2h3.712c-.088.72-.148 1.452-.148 2.2 0 .748.06 1.48.154 2.2H2.486zm.897 2.2h3.244a17.616 17.616 0 0 0 1.519 3.921A8.819 8.819 0 0 1 3.383 15.4zm3.244-8.8H3.383a8.818 8.818 0 0 1 4.763-3.921A17.62 17.62 0 0 0 6.627 6.6zM11 19.762A15.528 15.528 0 0 1 8.899 15.4h4.202A15.528 15.528 0 0 1 11 19.762zm2.574-6.562H8.426A15.282 15.282 0 0 1 8.25 11c0-.748.072-1.48.176-2.2h5.148c.104.72.176 1.452.176 2.2 0 .748-.072 1.48-.176 2.2zm5.038-6.6h-3.245a17.468 17.468 0 0 0-1.518-3.916A8.809 8.809 0 0 1 18.612 6.6zm-4.757 12.716a17.576 17.576 0 0 0 1.518-3.916h3.245a8.848 8.848 0 0 1-4.763 3.916zm1.941-6.116c.088-.72.154-1.452.154-2.2 0-.748-.06-1.48-.154-2.2h3.713c.181.704.291 1.441.291 2.2 0 .759-.105 1.496-.291 2.2h-3.713z" fill="#000" fill-opacity=".54"/></svg>