<svg xmlns="http://www.w3.org/2000/svg" id="Layer_1" data-name="Layer 1" viewBox="0 0 568.73 94.74">
  <defs>
    <style>
      .cls-1{fill:#fff}
    </style>
  </defs>
  <path d="M472.42 392.31v6.51h-18.5v50.89H446v-50.89h-18.51v-6.51zM477.87 419c1.35-6.27 5.71-9.84 10.63-9.84a9 9 0 0 1 3.66.87v7.55a8.64 8.64 0 0 0-4.21-1c-2.62 0-10.08 1.27-10.08 18.18v15h-7.7V410h7.7zM513.17 409.14a16.68 16.68 0 0 1 14.36 7.22V410h7.7v39.7h-7.7v-6.35a16.68 16.68 0 0 1-14.36 7.22c-11.91 0-19.69-9.37-19.69-20.72s7.78-20.71 19.69-20.71zm1 6.83c-8.26 0-12.94 6.35-12.94 13.89s4.68 13.89 12.94 13.89c8 0 13.49-5.87 13.57-13.89-.13-8.02-5.6-13.86-13.62-13.86zM559.62 409.14a16.69 16.69 0 0 1 14.38 7.22v-24.05h7.7v57.4H574v-6.35a16.69 16.69 0 0 1-14.37 7.22c-11.91 0-19.69-9.37-19.69-20.72s7.77-20.72 19.68-20.72zm1 6.83c-8.26 0-13 6.35-13 13.89s4.69 13.89 13 13.89c8 0 13.49-5.87 13.57-13.89-.12-8.02-5.6-13.86-13.61-13.86zM626 443.2c-5.08 5.71-11.51 7.38-17.39 7.38-13.81 0-22.38-9.29-22.38-20.56 0-11.59 9-20.88 21.35-20.88 10.48 0 20.24 6.75 20.24 21.43h-33.88c-.24 7.7 5.95 13.18 14.76 13.18a19.34 19.34 0 0 0 13-5zm-31.36-18.58h25.24c-2.14-7.22-7.77-8.73-12.14-8.73-4.67 0-10.47 1.82-13.09 8.73zM664.48 408.58v41.13h-7.94v-57.4h5.88l30.4 42.79v-42.79h8v57.4H695zM726.1 409.14a16.69 16.69 0 0 1 14.37 7.22V410h7.7v39.7h-7.7v-6.35a16.69 16.69 0 0 1-14.37 7.22c-11.9 0-19.68-9.37-19.68-20.72s7.78-20.71 19.68-20.71zm1 6.83c-8.26 0-12.94 6.35-12.94 13.89s4.68 13.89 12.94 13.89c8 0 13.49-5.87 13.57-13.89-.12-8.02-5.6-13.86-13.61-13.86zM790.08 392.31a5.35 5.35 0 0 1 5.4 5.4 5.29 5.29 0 0 1-5.4 5.32 5.22 5.22 0 0 1-5.32-5.32 5.29 5.29 0 0 1 5.32-5.4z" class="cls-1" transform="translate(-312.54 -374.05)"/>
  <path d="M473.74 35.97h7.7v39.69h-7.7z" class="cls-1"/>
  <path d="M819.44 409.14a20.72 20.72 0 1 1-20.8 20.72 20.87 20.87 0 0 1 20.8-20.72zm0 34.61c7.3 0 13.18-6.19 13.18-13.81s-5.88-14-13.18-14-13.1 6.27-13.1 14 5.88 13.81 13.1 13.81zM873.57 427.32c0-8.41-3.89-11.35-8.1-11.35s-12.78 2.78-12.78 15.32v18.42H845V410h7.7v8c1.66-5.63 6.82-8.81 13.34-8.81 8.57 0 15.24 5.4 15.24 18.18v22.39h-7.7zM772.44 443.83c-2.62 0-4.77-1.75-4.77-6.11v-21.67h12.42v-6h-12.42v-11.47H760V410h-6.51v6H760v21.11c0 10.16 6.12 13.42 12.39 13.42a13.24 13.24 0 0 0 7.73-2.17l-5.12-5.09a5.76 5.76 0 0 1-2.56.56z" class="cls-1" transform="translate(-312.54 -374.05)"/>
  <path d="M22.02 60.29v34.45h24.12L22.02 60.29zM0 0v21.91h22.02L49.04 60.5V21.91h22.02V0H0z" class="cls-1"/>
</svg>
